<?xml version="1.0" encoding="utf-8"?>
<!-- Generator: Adobe Illustrator 27.0.0, SVG Export Plug-In . SVG Version: 6.00 Build 0)  -->
<svg version="1.1" id="Layer_1" xmlns="http://www.w3.org/2000/svg" xmlns:xlink="http://www.w3.org/1999/xlink" x="0px" y="0px"
	 viewBox="0 0 297.64 99.21" style="enable-background:new 0 0 297.64 99.21;" xml:space="preserve">
<style type="text/css">
	.st0{fill:#70B3E2;}
	.st1{fill:#FFFFFF;}
</style>
<g>
	<g>
		<g>
			<path class="st0" d="M219.74,40.09c0,14.87,12.06,26.93,26.93,26.93c14.87,0,26.93-12.06,26.93-26.93s-12.06-26.93-26.93-26.93
				C231.8,13.16,219.74,25.22,219.74,40.09"/>
		</g>
		<path class="st1" d="M244.74,33.75L244.74,33.75c-0.4,0.4-0.75,0.83-1.08,1.29c-5.13-3.6-10.73-3.7-14.5-3.7
			c0,4.41,0.12,11.33,5.85,17.06l0,0c1.43,1.44,3.42,2.32,5.61,2.32c2.11,0,4.02-0.83,5.44-2.17c1.57,1.09,3.47,1.74,5.53,1.74
			c2.68,0,5.11-1.09,6.86-2.85c7.02-7.02,7.24-15.66,7.24-20.94C260.41,26.5,251.77,26.72,244.74,33.75z"/>
		<path d="M290.41,66.24l-7.63-19.83V43c0-19.91-16.2-36.11-36.11-36.11c-19.1,0-34.07,13.29-34.07,30.27
			c0,10.04,4.24,16.02,7.8,19.27c4.22,3.85,9.81,6.06,15.35,6.06c7.09,0,11.85-3.62,11.85-9.02v-2.62c1.26,0.49,2.61,0.76,3.99,0.76
			c2.95,0,5.72-1.15,7.79-3.24c7.62-7.63,7.62-17.25,7.62-21.87c0-0.73-0.59-1.32-1.32-1.32c-4.63,0-14.26,0-21.88,7.63l0,0
			c-0.15,0.15-0.29,0.3-0.43,0.46c-5.33-3.25-11.05-3.25-14.21-3.25c-0.73,0-1.32,0.59-1.32,1.32c0,4.11,0,11.76,6.23,17.99
			c1.75,1.75,4.07,2.71,6.54,2.71c1.53,0,3.01-0.38,4.34-1.09v2.51c0,4.4-4.62,6.37-9.21,6.37c-4.81,0-9.88-2.01-13.56-5.37
			c-3.17-2.89-6.94-8.24-6.94-17.32c0-15.49,13.8-27.62,31.42-27.62c18.45,0,33.47,15.01,33.47,33.47v3.66
			c0,0.19,0.04,0.37,0.11,0.53l7.69,20c0.17,0.45,0.12,0.93-0.16,1.33c-0.27,0.4-0.7,0.62-1.18,0.62h-5.14
			c-0.68,0-1.25,0.52-1.32,1.2l-1.62,17.87c-0.06,0.61-0.56,1.07-1.18,1.07h-13.08c-22.15,0-37.58-12.68-37.58-24.07
			c0-0.73-0.59-1.32-1.32-1.32s-1.32,0.59-1.32,1.32c0,15.74,21.2,26.71,40.22,26.71h13.08c1.99,0,3.63-1.49,3.81-3.48l1.51-16.66
			h3.93c1.34,0,2.6-0.66,3.36-1.77C290.73,68.91,290.89,67.5,290.41,66.24z M235.95,47.47c-4.89-4.89-5.4-10.76-5.45-14.8
			c3.33,0.05,8.1,0.42,12.41,3.45c0.29,0.2,0.64,0.28,0.99,0.22c0.35-0.06,0.65-0.26,0.85-0.54c0.29-0.42,0.6-0.79,0.93-1.12
			c6.24-6.24,13.9-6.8,18.69-6.85c-0.05,4.79-0.61,12.44-6.85,18.68c-1.58,1.59-3.69,2.46-5.92,2.46c-1.72,0-3.37-0.52-4.78-1.5
			c-0.51-0.36-1.21-0.31-1.66,0.12c-1.24,1.17-2.84,1.81-4.53,1.81C238.86,49.4,237.2,48.71,235.95,47.47z"/>
	</g>
	<g>
		<path d="M12.64,70.07c0,0,5.96,5.81,13.7,5.81c4.18,0,7.97-2.17,7.97-6.66c0-9.83-25.93-8.13-25.93-25.01
			c0-9.14,7.9-15.95,18.43-15.95c10.84,0,16.41,5.88,16.41,5.88l-4.34,8.13c0,0-5.26-4.8-12.15-4.8c-4.65,0-8.28,2.71-8.28,6.58
			c0,9.75,25.86,7.36,25.86,24.93c0,8.75-6.66,16.1-18.11,16.1c-12.23,0-18.97-7.51-18.97-7.51L12.64,70.07z"/>
		<path d="M54.29,29.19h32.9v8.59H64.27v14.4h18.5v8.59h-18.5v14.79h24.15v8.59H54.29V29.19z"/>
		<path d="M98.8,29.19h9.99v46.37h23.77v8.59H98.8V29.19z"/>
		<path d="M140.53,29.19h31.59v8.59h-21.6v15.56h18.19v8.59h-18.19v22.22h-9.99V29.19z"/>
		<path d="M181.48,29.19h9.99v54.97h-9.99V29.19z"/>
	</g>
</g>
</svg>
