<?xml version="1.0" encoding="utf-8"?>
<!-- Generator: Adobe Illustrator 27.0.0, SVG Export Plug-In . SVG Version: 6.00 Build 0)  -->
<svg version="1.1" id="Layer_1" xmlns="http://www.w3.org/2000/svg" xmlns:xlink="http://www.w3.org/1999/xlink" x="0px" y="0px"
	 viewBox="0 0 297.64 127.56" style="enable-background:new 0 0 297.64 127.56;" xml:space="preserve">
<style type="text/css">
	.st0{fill:#70B3E2;}
	.st1{fill:#FFFFFF;}
	.st2{fill:#231F20;}
</style>
<g>
	<g>
		<g>
			<path class="st0" d="M219.61,40.28c0,14.87,12.06,26.93,26.93,26.93c14.87,0,26.93-12.06,26.93-26.93s-12.06-26.93-26.93-26.93
				C231.67,13.36,219.61,25.41,219.61,40.28"/>
		</g>
		<path class="st1" d="M244.61,33.94L244.61,33.94c-0.4,0.4-0.75,0.83-1.08,1.29c-5.13-3.6-10.73-3.7-14.5-3.7
			c0,4.41,0.12,11.33,5.85,17.06l0,0c1.43,1.44,3.42,2.32,5.61,2.32c2.11,0,4.02-0.83,5.44-2.17c1.57,1.09,3.47,1.74,5.53,1.74
			c2.68,0,5.11-1.09,6.86-2.85c7.02-7.02,7.24-15.66,7.24-20.94C260.27,26.7,251.64,26.91,244.61,33.94z"/>
		<path d="M290.28,66.44l-7.63-19.83V43.2c0-19.91-16.2-36.11-36.11-36.11c-19.1,0-34.07,13.29-34.07,30.27
			c0,10.04,4.24,16.02,7.8,19.27c4.22,3.85,9.81,6.06,15.35,6.06c7.09,0,11.85-3.62,11.85-9.02v-2.62c1.26,0.49,2.61,0.76,3.99,0.76
			c2.95,0,5.72-1.15,7.79-3.24c7.62-7.63,7.62-17.25,7.62-21.87c0-0.73-0.59-1.32-1.32-1.32c-4.63,0-14.26,0-21.88,7.63l0,0
			c-0.15,0.15-0.29,0.3-0.43,0.46c-5.33-3.25-11.05-3.25-14.21-3.25c-0.73,0-1.32,0.59-1.32,1.32c0,4.11,0,11.76,6.23,17.99
			c1.75,1.75,4.07,2.71,6.54,2.71c1.53,0,3.01-0.38,4.34-1.09v2.51c0,4.4-4.62,6.37-9.21,6.37c-4.81,0-9.88-2.01-13.56-5.37
			c-3.17-2.89-6.94-8.24-6.94-17.32c0-15.49,13.8-27.62,31.42-27.62c18.45,0,33.47,15.01,33.47,33.47v3.66
			c0,0.19,0.04,0.37,0.11,0.53l7.69,20c0.17,0.45,0.12,0.93-0.16,1.33c-0.27,0.4-0.7,0.62-1.18,0.62h-5.14
			c-0.68,0-1.25,0.52-1.32,1.2l-1.62,17.87c-0.06,0.61-0.56,1.07-1.18,1.07h-13.08c-22.15,0-37.58-12.68-37.58-24.07
			c0-0.73-0.59-1.32-1.32-1.32s-1.32,0.59-1.32,1.32c0,15.74,21.2,26.71,40.22,26.71h13.08c1.99,0,3.63-1.49,3.81-3.48l1.51-16.66
			h3.93c1.34,0,2.6-0.66,3.36-1.77C290.6,69.11,290.76,67.69,290.28,66.44z M235.82,47.66c-4.89-4.89-5.4-10.76-5.45-14.8
			c3.33,0.05,8.1,0.42,12.41,3.45c0.29,0.2,0.64,0.28,0.99,0.22c0.35-0.06,0.65-0.26,0.85-0.54c0.29-0.42,0.6-0.79,0.93-1.12
			c6.24-6.24,13.9-6.8,18.69-6.85c-0.05,4.79-0.61,12.44-6.85,18.68c-1.58,1.59-3.69,2.46-5.92,2.46c-1.72,0-3.37-0.52-4.78-1.5
			c-0.51-0.36-1.21-0.31-1.66,0.12c-1.24,1.17-2.84,1.81-4.53,1.81C238.73,49.6,237.07,48.91,235.82,47.66z"/>
	</g>
	<g>
		<path d="M12.51,70.26c0,0,5.96,5.81,13.7,5.81c4.18,0,7.97-2.17,7.97-6.66c0-9.83-25.93-8.13-25.93-25.01
			c0-9.14,7.9-15.95,18.43-15.95c10.84,0,16.41,5.88,16.41,5.88l-4.34,8.13c0,0-5.26-4.8-12.15-4.8c-4.65,0-8.28,2.71-8.28,6.58
			c0,9.75,25.86,7.36,25.86,24.93c0,8.75-6.66,16.1-18.11,16.1c-12.23,0-18.97-7.51-18.97-7.51L12.51,70.26z"/>
		<path d="M54.16,29.38h32.9v8.59H64.14v14.4h18.5v8.59h-18.5v14.79H88.3v8.59H54.16V29.38z"/>
		<path d="M98.67,29.38h9.99v46.37h23.77v8.59H98.67V29.38z"/>
		<path d="M140.4,29.38h31.59v8.59h-21.6v15.56h18.19v8.59h-18.19v22.22h-9.99V29.38z"/>
		<path d="M181.35,29.38h9.99v54.97h-9.99V29.38z"/>
	</g>
</g>
<g>
	<path class="st2" d="M13.73,116.94c0,0,1.4,1.37,3.22,1.37c0.98,0,1.88-0.51,1.88-1.57c0-2.31-6.1-1.91-6.1-5.88
		c0-2.15,1.86-3.75,4.33-3.75c2.55,0,3.86,1.38,3.86,1.38l-1.02,1.91c0,0-1.24-1.13-2.86-1.13c-1.09,0-1.95,0.64-1.95,1.55
		c0,2.29,6.08,1.73,6.08,5.86c0,2.06-1.57,3.79-4.26,3.79c-2.88,0-4.46-1.77-4.46-1.77L13.73,116.94z"/>
	<path class="st2" d="M25.16,107.33h7.74v2.02h-5.39v3.39h4.35v2.02h-4.35v3.48h5.68v2.02h-8.03V107.33z"/>
	<path class="st2" d="M37.26,107.33h2.35v10.9h5.59v2.02h-7.94V107.33z"/>
	<path class="st2" d="M46.12,107.33h2.53l2.84,8.43c0.25,0.75,0.47,1.89,0.49,1.89h0.04c0.02,0,0.24-1.15,0.49-1.89l2.86-8.43h2.51
		l-4.71,12.92h-2.33L46.12,107.33z"/>
	<path class="st2" d="M61.14,107.33h2.35v5.48h5.92v-5.48h2.35v12.92H69.4v-5.42h-5.92v5.42h-2.35V107.33z"/>
	<path class="st2" d="M75.46,115.69h2.33v0.6c0,1.53,0.84,2.04,1.71,2.04c0.87,0,1.66-0.53,1.66-1.93v-7.04h-3.33v-2.02h5.68v9.1
		c0,2.82-2.04,4.04-4.04,4.04c-1.98,0-4-1.26-4-4.04V115.69z"/>
	<path class="st2" d="M88.26,107.33h7.74v2.02h-5.39v3.39h4.35v2.02h-4.35v3.48h5.68v2.02h-8.03V107.33z"/>
	<path class="st2" d="M100.36,107.33h2.35v10.9h5.59v2.02h-7.94V107.33z"/>
	<path class="st2" d="M111.81,107.33h4.99c2.42,0,4.11,1.69,4.11,4.21c0,2.51-1.69,4.26-4.11,4.26h-2.64v4.46h-2.35V107.33z
		 M116.36,113.76c1.37,0,2.17-0.87,2.17-2.22c0-1.33-0.8-2.18-2.13-2.18h-2.24v4.41H116.36z"/>
	<path class="st2" d="M133.28,107.33h7.43v2.02h-5.08v3.66h4.28v2.02h-4.28v5.22h-2.35V107.33z"/>
	<path class="st2" d="M150.33,107.11c3.8,0,6.68,2.89,6.68,6.59c0,3.8-2.88,6.77-6.68,6.77c-3.8,0-6.68-2.97-6.68-6.77
		C143.65,110.01,146.53,107.11,150.33,107.11z M150.33,118.32c2.37,0,4.26-1.97,4.26-4.62c0-2.55-1.89-4.44-4.26-4.44
		s-4.26,1.89-4.26,4.44C146.07,116.36,147.97,118.32,150.33,118.32z"/>
	<path class="st2" d="M161.03,107.33h4.17c1.4,0,2.04,0.11,2.6,0.36c1.29,0.58,2.11,1.82,2.11,3.53c0,1.55-0.82,2.99-2.18,3.53v0.04
		c0,0,0.18,0.18,0.44,0.64l2.66,4.82h-2.62l-2.57-4.82h-2.26v4.82h-2.35V107.33z M165.49,113.39c1.26,0,2.04-0.75,2.04-2.04
		c0-1.24-0.53-2-2.37-2h-1.78v4.04H165.49z"/>
	<path class="st2" d="M183.3,107.33h2.35v12.92h-2.35V107.33z"/>
	<path class="st2" d="M190.57,107.33h2.35l4.9,7.46c0.49,0.75,1.07,2,1.07,2h0.04c0,0-0.13-1.24-0.13-2v-7.46h2.33v12.92h-2.33
		l-4.9-7.45c-0.49-0.75-1.07-2-1.07-2h-0.04c0,0,0.13,1.24,0.13,2v7.45h-2.35V107.33z"/>
	<path class="st2" d="M206.04,107.33h2.35l4.9,7.46c0.49,0.75,1.07,2,1.07,2h0.04c0,0-0.13-1.24-0.13-2v-7.46h2.33v12.92h-2.33
		l-4.9-7.45c-0.49-0.75-1.07-2-1.07-2h-0.04c0,0,0.13,1.24,0.13,2v7.45h-2.35V107.33z"/>
	<path class="st2" d="M221.8,116.94c0,0,1.4,1.37,3.22,1.37c0.98,0,1.88-0.51,1.88-1.57c0-2.31-6.1-1.91-6.1-5.88
		c0-2.15,1.86-3.75,4.33-3.75c2.55,0,3.86,1.38,3.86,1.38l-1.02,1.91c0,0-1.24-1.13-2.86-1.13c-1.09,0-1.95,0.64-1.95,1.55
		c0,2.29,6.08,1.73,6.08,5.86c0,2.06-1.57,3.79-4.26,3.79c-2.88,0-4.46-1.77-4.46-1.77L221.8,116.94z"/>
	<path class="st2" d="M239.65,116.94h-4.53l-1.09,3.31h-2.42l4.55-12.92h2.46l4.55,12.92h-2.42L239.65,116.94z M237.38,109.57
		c0,0-0.29,1.27-0.55,2l-1.15,3.46h3.39l-1.15-3.46c-0.24-0.73-0.51-2-0.51-2H237.38z"/>
	<path class="st2" d="M248.39,109.35h-4.24v-2.02h10.83v2.02h-4.24v10.9h-2.35V109.35z"/>
	<path class="st2" d="M261.44,109.35h-4.24v-2.02h10.83v2.02h-4.24v10.9h-2.35V109.35z"/>
	<path class="st2" d="M271.37,107.33h7.74v2.02h-5.39v3.39h4.35v2.02h-4.35v3.48h5.68v2.02h-8.03V107.33z"/>
</g>
</svg>
