<?xml version="1.0" encoding="utf-8"?>
<!-- Generator: Adobe Illustrator 27.0.1, SVG Export Plug-In . SVG Version: 6.00 Build 0)  -->
<svg version="1.1" id="Layer_1" xmlns="http://www.w3.org/2000/svg" xmlns:xlink="http://www.w3.org/1999/xlink" x="0px" y="0px"
	 viewBox="0 0 283.46 283.46" style="enable-background:new 0 0 283.46 283.46;" xml:space="preserve">
<style type="text/css">
	.st0{fill:#231F20;}
	.st1{fill:#F26F21;}
</style>
<g>
	<g>
		<path class="st0" d="M113.89,147.23h-5.54v-32.28l5.54-5.54V147.23z"/>
		<g>
			<path class="st0" d="M207.06,134.38c-0.66-1.49-1.47-2.66-2.41-3.54c1.87-0.42,3.51-1.45,4.92-3.1c1.81-2.08,2.71-4.59,2.71-7.51
				c0-2.92-0.91-5.43-2.71-7.51c-1.89-2.21-4.21-3.32-6.95-3.32h-8.28l-8.51,8.51v13.15v16.17h5.54v-16.17h5.72
				c1.64,0,2.75,0.63,3.32,1.9l5.44,12.5c0.5,1.18,1.58,1.77,3.24,1.77h3.53L207.06,134.38z M191.38,125.52v-10.57h10.7
				c1.09,0,2.05,0.48,2.88,1.43c0.89,1.06,1.34,2.34,1.34,3.85c0,1.54-0.45,2.83-1.34,3.85c-0.84,0.95-1.8,1.43-2.88,1.43H191.38z"
				/>
		</g>
		<path class="st0" d="M141.13,109.41h-9.9c-2.43,0-4.51,0.73-6.26,2.19c-2.12,1.77-3.19,4.29-3.19,7.57v28.05l5.54-5.54v-10.62
			h13.81l5.54-5.54h-19.35v-6.34c0-1.43,0.44-2.52,1.31-3.29c0.71-0.62,1.59-0.94,2.62-0.94h9.87v0h5.54v-2.92v-2.62H141.13z"/>
		<g>
			<path class="st0" d="M172.69,109.41h-9.93c-2.43,0-4.51,0.73-6.26,2.19c-2.12,1.77-3.19,4.29-3.19,7.57v18.28
				c0,3.3,1.06,5.83,3.19,7.57c0.33,0.28,0.68,0.52,1.04,0.75l4.23-4.23c-0.58-0.14-1.11-0.4-1.57-0.8
				c-0.89-0.77-1.34-1.86-1.34-3.29v-6.4h13.83l5.54-5.54h-19.38v-6.34c0-1.41,0.45-2.51,1.34-3.29c0.71-0.62,1.58-0.94,2.6-0.94
				h9.9v0h5.54v-2.92v-2.62H172.69z"/>
			<path class="st0" d="M172.69,141.68L172.69,141.68l-9.9,0c-0.1,0-0.18-0.02-0.27-0.02l-4.43,4.43c1.39,0.75,2.95,1.13,4.68,1.13
				h9.93h5.54v-2.62v-2.92H172.69z"/>
		</g>
		<g>
			<path class="st0" d="M95.58,127.12c-1.41-0.68-3.03-1.11-4.87-1.28c-0.75-0.09-1.64-0.13-2.68-0.13c-0.68,0-1.36,0-2.03,0.01
				c-0.68,0.01-1.35,0-2.01-0.04c-1.66-0.05-3.02-0.27-4.07-0.67c-1.05-0.34-1.88-0.89-2.49-1.64c-0.79-0.9-1.12-1.95-0.99-3.12
				c0.11-1.14,0.57-2.15,1.39-3.02c0.98-1.02,2.27-1.72,3.85-2.1c1.25-0.32,2.57-0.19,4.13-0.19c1.39,0,7.26,0,7.26,0l5.54-5.54
				c0,0-10.8,0-12.46,0c-2.11,0-3.93,0.18-5.49,0.54c-1.77,0.41-3.36,1.06-4.76,1.94c-1.46,0.96-2.64,2.15-3.53,3.58
				c-0.84,1.38-1.32,2.85-1.45,4.4c-0.09,1.07-0.01,2.13,0.24,3.17c0.23,1.04,0.63,2.01,1.2,2.89c0.61,0.94,1.32,1.73,2.14,2.38
				c1,0.8,2.23,1.43,3.69,1.87c1.27,0.39,2.79,0.64,4.58,0.74c0.77,0.05,1.54,0.07,2.33,0.06c0.79-0.01,1.56-0.02,2.33-0.04
				c1.48,0,2.56,0.05,3.24,0.15c0.3,0.05,0.59,0.12,0.88,0.19l4.13-4.13C95.65,127.16,95.62,127.14,95.58,127.12z"/>
			<path class="st0" d="M101.31,134.51c-0.25-1.62-0.87-3.07-1.87-4.35c-0.87-1.09-1.94-1.97-3.19-2.68l-4.03,4.03
				c0.32,0.11,0.64,0.24,0.95,0.39c0.75,0.41,1.35,0.88,1.79,1.41c0.46,0.6,0.76,1.26,0.88,2c0.11,0.75,0.06,1.44-0.13,2.07
				c-0.32,1.04-0.96,1.92-1.87,2.69c-1.3,1.08-3.51,1.62-7.07,1.62c-0.45,0-2.54,0-4.73,0c-0.29,0-0.58,0-0.86,0
				c-2.44,0-4.74,0-4.74,0l-5.54,5.54c0,0,2.1,0,4.74,0c0.28,0,0.57,0,0.86,0c4.1,0,9.04,0,9.66,0c1.3,0,2.5-0.06,3.59-0.18
				c1.87-0.2,3.56-0.66,5.06-1.36c1.46-0.68,2.72-1.58,3.77-2.69c1.07-1.11,1.85-2.39,2.33-3.84
				C101.41,137.67,101.54,136.12,101.31,134.51z"/>
		</g>
	</g>
	<g>
		<g>
			<polygon class="st1" points="109.16,168.68 72.31,168.68 70.89,170.1 109.16,170.1 			"/>
			<rect x="174.36" y="168.68" class="st1" width="38.27" height="1.42"/>
		</g>
		<g>
			<path class="st1" d="M120.06,173.9h-1.64v-10.61h1.64l6.77,8.09v-8.09h1.64v10.61h-1.66l-6.76-8.01V173.9z"/>
			<path class="st1" d="M136.52,163.13c3.23,0,5.62,2.31,5.62,5.52c0,3.18-2.39,5.41-5.62,5.41c-3.17,0-5.56-2.23-5.56-5.41
				C130.96,165.45,133.35,163.13,136.52,163.13z M136.52,172.5c2.34,0,3.9-1.55,3.9-3.87c0-2.3-1.56-3.95-3.9-3.95
				c-2.27,0-3.83,1.64-3.83,3.95C132.69,170.95,134.25,172.5,136.52,172.5z"/>
			<path class="st1" d="M149.19,170.65h-2.92v3.25h-1.64v-10.61h4.8c1.99,0,3.7,1.16,3.7,3.7c0,1.7-0.94,2.88-2.23,3.39l2.91,3.51
				h-2.01L149.19,170.65z M146.26,164.78v4.39h2.86c1.27,0,2.3-0.82,2.3-2.16c0-1.48-1.03-2.23-2.3-2.23H146.26z"/>
			<path class="st1" d="M160.45,163.29c3.45,0,5.27,2.15,5.27,5.31c0,3.19-1.83,5.3-5.27,5.3h-4.49v-10.61H160.45z M164.03,168.6
				c0-2.37-1.09-3.84-3.82-3.84h-2.61v7.65h2.61C162.94,172.41,164.03,170.99,164.03,168.6z"/>
		</g>
	</g>
</g>
</svg>
